<svg width="463" height="368" viewBox="0 0 463 368" fill="none" xmlns="http://www.w3.org/2000/svg">
<path d="M0 308.774H462.778V309.316H0V308.774Z" fill="#4D4D4F"/>
<path d="M90.4775 80.6953H161.421C162.403 80.6953 163.344 81.0846 164.039 81.7775C164.733 82.4704 165.123 83.4102 165.123 84.3902V105.096C165.123 106.076 164.733 107.016 164.039 107.709C163.344 108.402 162.403 108.791 161.421 108.791H90.4775C89.4956 108.791 88.554 108.402 87.8597 107.709C87.1654 107.016 86.7753 106.076 86.7753 105.096V84.3902C86.7753 83.4102 87.1654 82.4704 87.8597 81.7775C88.554 81.0846 89.4956 80.6953 90.4775 80.6953V80.6953Z" fill="white"/>
<path d="M161.42 109.038H90.4778C89.4309 109.036 88.4273 108.621 87.687 107.882C86.9467 107.143 86.5301 106.141 86.5289 105.096V84.3913C86.5302 83.3465 86.9467 82.3447 87.687 81.6059C88.4273 80.8671 89.4309 80.4515 90.4778 80.4502H161.42C162.467 80.4515 163.471 80.8671 164.211 81.6059C164.951 82.3447 165.368 83.3465 165.369 84.3913V105.097C165.368 106.142 164.951 107.143 164.211 107.882C163.471 108.621 162.467 109.036 161.42 109.038ZM90.4778 80.9427C89.5618 80.9439 88.6836 81.3078 88.0359 81.9542C87.3881 82.6007 87.0239 83.4771 87.0227 84.3913V105.097C87.0239 106.011 87.3881 106.888 88.0359 107.534C88.6836 108.181 89.5618 108.544 90.4778 108.546H161.42C162.336 108.544 163.214 108.181 163.862 107.534C164.51 106.888 164.874 106.011 164.876 105.097V84.3913C164.874 83.4771 164.51 82.6007 163.862 81.9542C163.214 81.3078 162.336 80.9439 161.42 80.9427H90.4778Z" fill="#4D4D4F"/>
<path d="M120.446 89.2236H157.838C158.12 89.2236 158.39 89.3353 158.589 89.534C158.788 89.7326 158.9 90.0021 158.9 90.2831C158.9 90.5641 158.788 90.8336 158.589 91.0323C158.39 91.231 158.12 91.3426 157.838 91.3426H120.446C120.164 91.3426 119.894 91.231 119.695 91.0323C119.496 90.8336 119.384 90.5641 119.384 90.2831V90.2831C119.384 90.0021 119.496 89.7326 119.695 89.534C119.894 89.3353 120.164 89.2236 120.446 89.2236V89.2236Z" fill="#4D4D4F"/>
<path d="M120.446 98.4771H157.838C158.12 98.4771 158.39 98.5887 158.589 98.7874C158.788 98.9861 158.9 99.2556 158.9 99.5366C158.9 99.8176 158.788 100.087 158.589 100.286C158.39 100.484 158.12 100.596 157.838 100.596H120.446C120.164 100.596 119.894 100.484 119.695 100.286C119.496 100.087 119.384 99.8176 119.384 99.5366V99.5366C119.384 99.2556 119.496 98.9861 119.695 98.7874C119.894 98.5887 120.164 98.4771 120.446 98.4771V98.4771Z" fill="#4D4D4F"/>
<path d="M90.4775 135.944H161.421C162.403 135.944 163.344 136.334 164.039 137.027C164.733 137.719 165.123 138.659 165.123 139.639V160.345C165.123 161.325 164.733 162.265 164.039 162.958C163.344 163.651 162.403 164.04 161.421 164.04H90.4775C89.4956 164.04 88.554 163.651 87.8597 162.958C87.1654 162.265 86.7753 161.325 86.7753 160.345V139.639C86.7753 138.659 87.1654 137.719 87.8597 137.027C88.554 136.334 89.4956 135.944 90.4775 135.944V135.944Z" fill="white"/>
<path d="M161.42 164.287H90.4778C89.4309 164.286 88.4273 163.87 87.687 163.131C86.9467 162.392 86.5302 161.391 86.5289 160.346V139.64C86.5302 138.596 86.9467 137.594 87.687 136.855C88.4273 136.116 89.4309 135.701 90.4778 135.699H161.42C162.467 135.701 163.471 136.116 164.211 136.855C164.951 137.594 165.368 138.596 165.369 139.64V160.346C165.368 161.391 164.951 162.392 164.211 163.131C163.471 163.87 162.467 164.286 161.42 164.287ZM90.4772 136.191C89.5612 136.192 88.683 136.556 88.0353 137.202C87.3875 137.849 87.023 138.725 87.0218 139.639V160.345C87.023 161.259 87.3875 162.135 88.0353 162.782C88.683 163.428 89.5612 163.792 90.4772 163.793H161.42C162.336 163.792 163.214 163.428 163.862 162.782C164.51 162.135 164.874 161.259 164.876 160.345V139.639C164.874 138.725 164.51 137.849 163.862 137.202C163.214 136.556 162.336 136.192 161.42 136.191H90.4772Z" fill="#4D4D4F"/>
<path d="M122.914 144.143H160.307C160.588 144.143 160.858 144.254 161.057 144.453C161.256 144.652 161.368 144.921 161.368 145.202C161.368 145.483 161.256 145.753 161.057 145.951C160.858 146.15 160.588 146.262 160.307 146.262H122.914C122.633 146.262 122.363 146.15 122.163 145.951C121.964 145.753 121.853 145.483 121.853 145.202V145.202C121.853 144.921 121.964 144.652 122.163 144.453C122.363 144.254 122.633 144.143 122.914 144.143V144.143Z" fill="#4D4D4F"/>
<path d="M122.914 153.395H160.307C160.588 153.395 160.858 153.507 161.057 153.706C161.256 153.904 161.368 154.174 161.368 154.455C161.368 154.736 161.256 155.005 161.057 155.204C160.858 155.403 160.588 155.514 160.307 155.514H122.914C122.633 155.514 122.363 155.403 122.163 155.204C121.964 155.005 121.853 154.736 121.853 154.455V154.455C121.853 154.174 121.964 153.904 122.163 153.706C122.363 153.507 122.633 153.395 122.914 153.395V153.395Z" fill="#4D4D4F"/>
<path d="M90.4775 190.864H161.421C162.403 190.864 163.344 191.254 164.039 191.946C164.733 192.639 165.123 193.579 165.123 194.559V215.265C165.123 216.245 164.733 217.185 164.039 217.878C163.344 218.571 162.403 218.96 161.421 218.96H90.4775C89.4956 218.96 88.554 218.571 87.8597 217.878C87.1654 217.185 86.7753 216.245 86.7753 215.265V194.559C86.7753 193.579 87.1654 192.639 87.8597 191.946C88.554 191.254 89.4956 190.864 90.4775 190.864V190.864Z" fill="white"/>
<path d="M161.42 219.207H90.4778C89.4309 219.206 88.4273 218.79 87.687 218.051C86.9467 217.312 86.5302 216.311 86.5289 215.266V194.56C86.5301 193.515 86.9467 192.514 87.687 191.775C88.4273 191.036 89.4309 190.62 90.4778 190.619H161.42C162.467 190.62 163.471 191.036 164.211 191.775C164.952 192.514 165.368 193.515 165.369 194.56V215.266C165.368 216.311 164.951 217.312 164.211 218.051C163.471 218.79 162.467 219.206 161.42 219.207ZM90.4778 191.112C89.5618 191.113 88.6836 191.477 88.0359 192.123C87.3881 192.77 87.0239 193.646 87.0227 194.56V215.266C87.0239 216.18 87.3881 217.056 88.0359 217.703C88.6836 218.349 89.5618 218.713 90.4778 218.714H161.42C162.336 218.713 163.214 218.349 163.862 217.703C164.51 217.056 164.874 216.18 164.876 215.266V194.56C164.874 193.646 164.51 192.77 163.862 192.123C163.214 191.477 162.336 191.113 161.42 191.112H90.4778Z" fill="#4D4D4F"/>
<path d="M123.081 199.021H160.473C160.755 199.021 161.025 199.133 161.224 199.331C161.423 199.53 161.535 199.8 161.535 200.08C161.535 200.361 161.423 200.631 161.224 200.83C161.025 201.028 160.755 201.14 160.473 201.14H123.081C122.799 201.14 122.529 201.028 122.33 200.83C122.131 200.631 122.019 200.361 122.019 200.08V200.08C122.019 199.8 122.131 199.53 122.33 199.331C122.529 199.133 122.799 199.021 123.081 199.021V199.021Z" fill="#4D4D4F"/>
<path d="M123.08 208.274H160.473C160.754 208.274 161.024 208.386 161.224 208.584C161.423 208.783 161.534 209.052 161.534 209.333C161.534 209.614 161.423 209.884 161.224 210.083C161.024 210.281 160.754 210.393 160.473 210.393H123.08C122.799 210.393 122.529 210.281 122.33 210.083C122.131 209.884 122.019 209.614 122.019 209.333V209.333C122.019 209.052 122.131 208.783 122.33 208.584C122.529 208.386 122.799 208.274 123.08 208.274V208.274Z" fill="#4D4D4F"/>
<path d="M87.0168 120.218C101.114 120.218 112.541 108.813 112.541 94.744C112.541 80.6751 101.114 69.27 87.0168 69.27C72.9199 69.27 61.4921 80.6751 61.4921 94.744C61.4921 108.813 72.9199 120.218 87.0168 120.218Z" fill="white"/>
<path d="M87.0174 120.464C81.9203 120.464 76.9379 118.955 72.6999 116.129C68.4618 113.303 65.1587 109.286 63.2081 104.587C61.2575 99.8868 60.7471 94.7155 61.7414 89.7263C62.7358 84.7371 65.1902 80.1542 68.7943 76.5572C72.3984 72.9602 76.9904 70.5106 81.9895 69.5182C86.9886 68.5257 92.1703 69.035 96.8794 70.9816C101.588 72.9283 105.613 76.2248 108.445 80.4544C111.277 84.684 112.789 89.6567 112.789 94.7436C112.781 101.563 110.063 108.1 105.232 112.922C100.401 117.744 93.85 120.456 87.0174 120.464ZM87.0174 69.5162C82.0178 69.5162 77.1307 70.9956 72.9737 73.7677C68.8168 76.5397 65.5766 80.4798 63.6634 85.0895C61.7501 89.6993 61.2497 94.7717 62.225 99.6654C63.2004 104.559 65.6077 109.054 69.1429 112.582C72.6781 116.111 77.1821 118.513 82.0856 119.487C86.989 120.46 92.0716 119.961 96.6905 118.051C101.309 116.142 105.257 112.908 108.035 108.759C110.812 104.611 112.295 99.7332 112.295 94.7436C112.287 88.0552 109.622 81.6429 104.883 76.9135C100.144 72.1841 93.719 69.5238 87.0174 69.5162Z" fill="#4D4D4F"/>
<path d="M87.2166 179.439C92.2649 179.439 97.1999 180.933 101.397 183.732C105.595 186.531 108.866 190.509 110.798 195.164C112.73 199.819 113.236 204.941 112.251 209.882C111.266 214.824 108.835 219.363 105.265 222.925C101.696 226.488 97.1475 228.914 92.1962 229.897C87.2449 230.88 82.1128 230.376 77.4488 228.448C72.7847 226.519 68.7983 223.254 65.9937 219.065C63.189 214.876 61.692 209.951 61.692 204.913C61.692 198.157 64.3812 191.677 69.168 186.9C73.9548 182.123 80.4471 179.439 87.2166 179.439V179.439Z" fill="white"/>
<path d="M87.2163 230.633C82.1192 230.633 77.1368 229.124 72.8988 226.298C68.6608 223.472 65.3579 219.455 63.4073 214.755C61.4568 210.055 60.9463 204.884 61.9407 199.895C62.9351 194.905 65.3896 190.323 68.9938 186.726C72.598 183.129 77.1902 180.679 82.1893 179.687C87.1884 178.694 92.3699 179.204 97.0789 181.15C101.788 183.097 105.813 186.394 108.645 190.623C111.477 194.853 112.988 199.826 112.988 204.913C112.98 211.732 110.262 218.269 105.431 223.091C100.6 227.913 94.0489 230.625 87.2163 230.633ZM87.2163 179.685C82.2168 179.685 77.3298 181.165 73.173 183.937C69.0161 186.709 65.7763 190.649 63.8632 195.259C61.9501 199.869 61.4497 204.941 62.4251 209.835C63.4006 214.728 65.8078 219.223 69.343 222.751C72.8782 226.279 77.3823 228.682 82.2857 229.655C87.1891 230.629 92.2717 230.129 96.8906 228.22C101.51 226.31 105.457 223.077 108.235 218.928C111.012 214.78 112.495 209.902 112.495 204.913C112.487 198.224 109.822 191.811 105.083 187.082C100.344 182.352 93.9182 179.692 87.2163 179.685Z" fill="#4D4D4F"/>
<path d="M87.0184 124.519C92.0667 124.519 97.0016 126.013 101.199 128.812C105.397 131.611 108.668 135.589 110.6 140.244C112.532 144.899 113.037 150.021 112.053 154.962C111.068 159.904 108.637 164.443 105.067 168.005C101.497 171.568 96.9493 173.994 91.998 174.977C87.0467 175.96 81.9146 175.455 77.2505 173.527C72.5865 171.599 68.6001 168.334 65.7954 164.145C62.9907 159.956 61.4937 155.031 61.4937 149.993C61.4937 143.236 64.1829 136.757 68.9697 131.98C73.7565 127.202 80.2488 124.519 87.0184 124.519V124.519Z" fill="white"/>
<path d="M87.0187 175.712C81.9217 175.712 76.939 174.204 72.701 171.378C68.4629 168.552 65.1598 164.535 63.2092 159.835C61.2586 155.135 60.7484 149.964 61.7428 144.975C62.7372 139.986 65.1915 135.403 68.7957 131.806C72.3998 128.209 76.992 125.759 81.9912 124.767C86.9903 123.774 92.172 124.284 96.8811 126.23C101.59 128.177 105.615 131.474 108.447 135.703C111.278 139.933 112.79 144.906 112.79 149.993C112.782 156.811 110.064 163.349 105.233 168.171C100.402 172.992 93.8513 175.705 87.0187 175.712ZM87.0187 124.765C82.0193 124.765 77.1323 126.244 72.9754 129.016C68.8186 131.788 65.5785 135.728 63.6653 140.338C61.7521 144.948 61.2517 150.02 62.227 154.914C63.2023 159.807 65.6098 164.302 69.1449 167.83C72.68 171.359 77.1839 173.761 82.0873 174.735C86.9906 175.708 92.073 175.209 96.6919 173.299C101.311 171.39 105.259 168.157 108.036 164.008C110.814 159.859 112.296 154.982 112.296 149.993C112.289 143.304 109.623 136.892 104.884 132.162C100.145 127.433 93.7205 124.773 87.0187 124.765Z" fill="#4D4D4F"/>
<path d="M325.2 139.373C325.199 142.647 324.225 145.846 322.403 148.567C320.58 151.288 317.99 153.409 314.959 154.661C311.929 155.912 308.595 156.239 305.378 155.6C302.162 154.961 299.207 153.385 296.888 151.07C294.57 148.755 292.991 145.806 292.351 142.596C291.712 139.385 292.041 136.058 293.296 133.034C294.551 130.01 296.677 127.425 299.404 125.607C302.131 123.789 305.337 122.818 308.617 122.818C310.798 122.806 312.96 123.227 314.977 124.055C316.995 124.883 318.828 126.102 320.37 127.642C321.912 129.181 323.133 131.011 323.962 133.025C324.791 135.038 325.212 137.196 325.2 139.373Z" fill="white"/>
<path d="M308.617 156.17C304.791 156.174 301.078 154.877 298.089 152.494C295.099 150.112 293.012 146.784 292.17 143.06C291.328 139.336 291.781 135.436 293.455 132.003C295.128 128.57 297.923 125.808 301.38 124.171C304.836 122.534 308.747 122.12 312.471 122.997C316.194 123.874 319.507 125.989 321.866 128.996C324.224 132.002 325.487 135.72 325.446 139.538C325.405 143.356 324.063 147.046 321.641 150.001C320.066 151.931 318.079 153.486 315.826 154.553C313.573 155.62 311.11 156.173 308.617 156.17ZM308.617 123.064C305.387 123.065 302.229 124.021 299.544 125.812C296.858 127.604 294.766 130.149 293.53 133.127C292.294 136.105 291.97 139.382 292.6 142.544C293.23 145.706 294.785 148.61 297.068 150.89C299.352 153.169 302.261 154.722 305.429 155.352C308.597 155.982 311.88 155.66 314.865 154.427C317.849 153.195 320.401 151.107 322.196 148.427C323.992 145.748 324.951 142.597 324.953 139.374C324.948 135.051 323.226 130.906 320.164 127.848C317.101 124.791 312.948 123.07 308.617 123.065V123.064Z" fill="#4D4D4F"/>
<path d="M321.452 149.845C319.897 151.745 317.939 153.275 315.719 154.326C313.499 155.378 311.073 155.923 308.616 155.924C306.159 155.924 303.732 155.38 301.512 154.329C299.291 153.279 297.333 151.749 295.778 149.85C297.38 146.606 301.407 144.161 306.337 143.577V141.29C304.467 140.274 303.168 138.061 303.168 135.488C303.168 131.957 305.607 129.097 308.617 129.097C311.621 129.097 314.061 131.957 314.061 135.488C314.061 138.061 312.762 140.276 310.898 141.29V143.577C315.823 144.161 319.849 146.606 321.452 149.845Z" fill="url(#paint0_linear_397_2789)"/>
<path d="M308.617 156.17C306.123 156.174 303.659 155.622 301.405 154.556C299.151 153.49 297.163 151.936 295.587 150.006L295.486 149.883L295.557 149.741C297.194 146.426 301.218 143.993 306.09 143.359V141.434C304.161 140.317 302.922 138.001 302.922 135.488C302.922 131.828 305.477 128.85 308.618 128.85C311.759 128.85 314.308 131.828 314.308 135.488C314.308 138 313.071 140.315 311.144 141.434V143.359C316.013 143.993 320.035 146.424 321.673 149.736L321.744 149.878L321.644 150.001C320.07 151.933 318.083 153.489 315.83 154.556C313.576 155.623 311.112 156.175 308.617 156.17ZM296.071 149.817C297.604 151.652 299.522 153.128 301.69 154.141C303.857 155.154 306.222 155.678 308.615 155.678C311.009 155.677 313.373 155.152 315.541 154.138C317.708 153.125 319.626 151.648 321.158 149.813C319.523 146.672 315.599 144.382 310.868 143.821L310.65 143.796V141.144L310.779 141.074C312.623 140.07 313.814 137.878 313.814 135.488C313.814 132.1 311.483 129.343 308.617 129.343C305.751 129.343 303.415 132.1 303.415 135.488C303.415 137.879 304.608 140.072 306.454 141.074L306.583 141.144V143.796L306.366 143.821C301.631 144.382 297.705 146.673 296.071 149.817Z" fill="#4D4D4F"/>
<path d="M224.725 63.0218C224.724 66.295 223.751 69.4944 221.928 72.2155C220.105 74.9366 217.515 77.057 214.485 78.309C211.454 79.5609 208.12 79.8879 204.903 79.2488C201.687 78.6096 198.733 77.033 196.414 74.7181C194.095 72.4033 192.516 69.4543 191.877 66.244C191.237 63.0336 191.566 59.7061 192.821 56.6822C194.077 53.6583 196.202 51.0737 198.929 49.2553C201.656 47.437 204.862 46.4663 208.142 46.4663C210.323 46.4549 212.485 46.8753 214.503 47.7033C216.52 48.5313 218.353 49.7504 219.896 51.2901C221.438 52.8298 222.659 54.6594 223.488 56.6732C224.317 58.6869 224.738 60.8447 224.725 63.0218Z" fill="white"/>
<path d="M208.142 79.8186C204.316 79.822 200.603 78.5255 197.614 76.1427C194.625 73.7599 192.538 70.4326 191.695 66.7083C190.853 62.9839 191.306 59.0844 192.98 55.6512C194.654 52.218 197.449 49.4558 200.905 47.8188C204.361 46.1819 208.273 45.7678 211.996 46.6448C215.719 47.5217 219.033 49.6374 221.391 52.6438C223.749 55.6502 225.012 59.3682 224.971 63.186C224.931 67.0038 223.589 70.6941 221.167 73.6497C219.592 75.5791 217.605 77.134 215.352 78.2011C213.099 79.2682 210.636 79.8208 208.142 79.8186ZM208.142 46.7126C204.912 46.7132 201.755 47.6694 199.069 49.4606C196.384 51.2517 194.291 53.7973 193.055 56.7755C191.819 59.7536 191.495 63.0307 192.125 66.1923C192.755 69.3539 194.31 72.2582 196.594 74.5379C198.877 76.8177 201.787 78.3704 204.954 79.0001C208.122 79.6298 211.406 79.3081 214.39 78.0755C217.375 76.843 219.926 74.755 221.722 72.0756C223.517 69.3961 224.476 66.2455 224.478 63.022C224.474 58.6987 222.752 54.5537 219.689 51.4963C216.627 48.4388 212.474 46.7185 208.142 46.7129V46.7126Z" fill="#4D4D4F"/>
<path d="M220.976 73.494C219.421 75.3933 217.463 76.9238 215.243 77.9751C213.023 79.0264 210.597 79.5721 208.14 79.5725C205.683 79.573 203.256 79.0284 201.036 77.978C198.816 76.9275 196.857 75.3975 195.302 73.4988C196.904 70.2544 200.931 67.8093 205.861 67.2252V64.9391C203.991 63.923 202.692 61.7101 202.692 59.137C202.692 55.6056 205.132 52.7454 208.141 52.7454C211.146 52.7454 213.585 55.6056 213.585 59.137C213.585 61.7101 212.286 63.9242 210.422 64.9391V67.2252C215.347 67.8093 219.373 70.2545 220.976 73.494Z" fill="url(#paint1_linear_397_2789)"/>
<path d="M208.141 79.8189C205.647 79.8225 203.183 79.2711 200.929 78.2048C198.675 77.1386 196.687 75.5842 195.111 73.655L195.01 73.5318L195.081 73.3895C196.718 70.0745 200.742 67.6413 205.615 67.0076V65.0828C203.685 63.9654 202.446 61.6498 202.446 59.1366C202.446 55.4766 205.001 52.4988 208.142 52.4988C211.283 52.4988 213.832 55.4766 213.832 59.1366C213.832 61.6488 212.595 63.9641 210.668 65.0828V67.0076C215.537 67.6413 219.559 70.0725 221.197 73.3843L221.268 73.5266L221.168 73.6497C219.594 75.5812 217.607 77.1375 215.354 78.2048C213.1 79.2722 210.636 79.8236 208.141 79.8189ZM195.595 73.4658C197.128 75.3006 199.046 76.7767 201.214 77.7894C203.381 78.8022 205.746 79.327 208.139 79.3266C210.533 79.3261 212.897 78.8004 215.065 77.7869C217.232 76.7733 219.15 75.2967 220.682 73.4613C219.047 70.3207 215.124 68.0311 210.392 67.4698L210.175 67.4442V64.7928L210.303 64.7228C212.147 63.7191 213.338 61.5266 213.338 59.1369C213.338 55.7484 211.007 52.9915 208.141 52.9915C205.275 52.9915 202.939 55.7484 202.939 59.1369C202.939 61.5278 204.132 63.7203 205.978 64.7225L206.107 64.7928V67.4442L205.89 67.4698C201.155 68.0311 197.229 70.3221 195.595 73.4658Z" fill="#4D4D4F"/>
<path d="M103.169 94.7364C103.168 98.0096 102.195 101.209 100.372 103.93C98.5489 106.651 95.9588 108.772 92.9284 110.024C89.8981 111.275 86.5637 111.603 83.3472 110.963C80.1306 110.324 77.1763 108.748 74.8575 106.433C72.5388 104.118 70.9599 101.169 70.3204 97.9586C69.681 94.7482 70.0097 91.4207 71.265 88.3968C72.5203 85.3729 74.6459 82.7883 77.373 80.9699C80.1 79.1516 83.306 78.1809 86.5857 78.1809C88.7671 78.1695 90.929 78.5899 92.9465 79.4179C94.964 80.2459 96.797 81.465 98.3393 83.0047C99.8815 84.5444 101.102 86.374 101.932 88.3878C102.761 90.4015 103.181 92.5593 103.169 94.7364Z" fill="white"/>
<path d="M86.5857 111.533C82.7601 111.536 79.047 110.24 76.0578 107.857C73.0686 105.474 70.9813 102.147 70.139 98.4226C69.2967 94.6983 69.7498 90.7987 71.4237 87.3655C73.0976 83.9323 75.8926 81.1701 79.3488 79.5332C82.805 77.8963 86.7164 77.4822 90.4398 78.3591C94.1632 79.2361 97.4766 81.3518 99.8348 84.3582C102.193 87.3646 103.456 91.0825 103.415 94.9004C103.374 98.7182 102.033 102.408 99.6107 105.364C98.0352 107.293 96.0486 108.848 93.7955 109.915C91.5424 110.983 89.0796 111.535 86.5857 111.533ZM86.5857 78.4269C83.3558 78.4276 80.1984 79.3838 77.513 81.1749C74.8276 82.9661 72.7347 85.5117 71.4987 88.4898C70.2627 91.4679 69.9391 94.745 70.569 97.9066C71.1988 101.068 72.7539 103.973 75.0374 106.252C77.3209 108.532 80.2304 110.085 83.3981 110.714C86.5658 111.344 89.8493 111.022 92.8338 109.79C95.8183 108.557 98.3697 106.469 100.165 103.79C101.961 101.11 102.92 97.9598 102.922 94.7363C102.918 90.4131 101.195 86.2681 98.1329 83.2106C95.0703 80.1531 90.9176 78.4329 86.5857 78.4272V78.4269Z" fill="#4D4D4F"/>
<path d="M99.4195 105.208C97.8651 107.108 95.9071 108.638 93.6872 109.689C91.4673 110.741 89.0409 111.286 86.5837 111.287C84.1265 111.287 81.7 110.743 79.4797 109.692C77.2593 108.642 75.3007 107.112 73.7456 105.213C75.3477 101.969 79.3744 99.5236 84.3048 98.9396V96.6534C82.4352 95.6373 81.1362 93.4245 81.1362 90.8513C81.1362 87.3199 83.5753 84.4597 86.5852 84.4597C89.5893 84.4597 92.0289 87.3199 92.0289 90.8513C92.0289 93.4245 90.7298 95.6386 88.8654 96.6534V98.9396C93.7906 99.5236 97.817 101.969 99.4195 105.208Z" fill="url(#paint2_linear_397_2789)"/>
<path d="M86.5852 111.533C84.0908 111.537 81.6268 110.985 79.3727 109.919C77.1186 108.853 75.1311 107.299 73.5546 105.369L73.4539 105.246L73.5244 105.104C75.1621 101.789 79.1859 99.3557 84.0584 98.722V96.7971C82.1286 95.6797 80.8897 93.3641 80.8897 90.851C80.8897 87.1909 83.4448 84.2131 86.5859 84.2131C89.7269 84.2131 92.276 87.1909 92.276 90.851C92.276 93.3632 91.0392 95.6785 89.1121 96.7971V98.722C93.9809 99.3557 98.003 101.787 99.6409 105.099L99.7117 105.241L99.6114 105.364C98.0375 107.296 96.0511 108.852 93.7975 109.919C91.5438 110.987 89.0798 111.538 86.5852 111.533ZM74.0387 105.18C75.5715 107.015 77.4896 108.491 79.6574 109.504C81.8253 110.517 84.1896 111.041 86.5831 111.041C88.9767 111.04 91.3411 110.515 93.5085 109.501C95.676 108.488 97.5936 107.011 99.1257 105.176C97.4906 102.035 93.5673 99.7455 88.8359 99.1841L88.6183 99.1586V96.5071L88.747 96.4372C90.5904 95.4334 91.7822 93.241 91.7822 90.8513C91.7822 87.4628 89.4508 84.7058 86.5849 84.7058C83.7191 84.7058 81.3826 87.4628 81.3826 90.8513C81.3826 93.2422 82.5755 95.4347 84.422 96.4369L84.551 96.5071V99.1586L84.3334 99.1841C79.5986 99.7455 75.673 102.036 74.0387 105.18Z" fill="#4D4D4F"/>
<path d="M103.169 149.851C103.168 153.124 102.195 156.324 100.372 159.045C98.5489 161.766 95.9588 163.886 92.9284 165.138C89.8981 166.39 86.5637 166.717 83.3472 166.078C80.1306 165.439 77.1763 163.862 74.8575 161.547C72.5388 159.233 70.9599 156.284 70.3204 153.073C69.681 149.863 70.0097 146.535 71.265 143.512C72.5203 140.488 74.6459 137.903 77.373 136.085C80.1 134.266 83.306 133.296 86.5857 133.296C88.7671 133.284 90.929 133.705 92.9465 134.533C94.964 135.361 96.797 136.58 98.3393 138.119C99.8815 139.659 101.102 141.489 101.932 143.503C102.761 145.516 103.181 147.674 103.169 149.851Z" fill="white"/>
<path d="M86.5857 166.648C82.7601 166.651 79.047 165.355 76.0578 162.972C73.0686 160.589 70.9813 157.262 70.139 153.538C69.2967 149.813 69.7498 145.914 71.4237 142.481C73.0976 139.047 75.8926 136.285 79.3488 134.648C82.805 133.011 86.7164 132.597 90.4398 133.474C94.1632 134.351 97.4766 136.467 99.8348 139.473C102.193 142.48 103.456 146.198 103.415 150.015C103.374 153.833 102.033 157.523 99.6107 160.479C98.0352 162.408 96.0486 163.963 93.7955 165.03C91.5424 166.097 89.0796 166.65 86.5857 166.648ZM86.5857 133.542C83.3558 133.543 80.1984 134.499 77.513 136.29C74.8276 138.081 72.7347 140.627 71.4987 143.605C70.2627 146.583 69.9391 149.86 70.569 153.022C71.1988 156.183 72.7539 159.088 75.0374 161.367C77.3209 163.647 80.2304 165.2 83.3981 165.829C86.5658 166.459 89.8493 166.137 92.8338 164.905C95.8183 163.672 98.3697 161.584 100.165 158.905C101.961 156.225 102.92 153.075 102.922 149.851C102.918 145.528 101.195 141.383 98.1329 138.326C95.0703 135.268 90.9176 133.548 86.5857 133.542V133.542Z" fill="#4D4D4F"/>
<path d="M99.4195 160.323C97.8651 162.222 95.9071 163.753 93.6872 164.804C91.4673 165.856 89.0409 166.401 86.5837 166.402C84.1265 166.402 81.7 165.858 79.4797 164.807C77.2593 163.757 75.3007 162.227 73.7456 160.328C75.3477 157.083 79.3744 154.638 84.3048 154.054V151.768C82.4352 150.752 81.1362 148.539 81.1362 145.966C81.1362 142.435 83.5753 139.574 86.5852 139.574C89.5893 139.574 92.0289 142.435 92.0289 145.966C92.0289 148.539 90.7298 150.753 88.8654 151.768V154.054C93.7906 154.638 97.817 157.084 99.4195 160.323Z" fill="url(#paint3_linear_397_2789)"/>
<path d="M86.5852 166.648C84.0908 166.652 81.6268 166.1 79.3727 165.034C77.1186 163.968 75.1311 162.413 73.5546 160.484L73.4539 160.361L73.5244 160.219C75.1621 156.904 79.1859 154.47 84.0584 153.837V151.912C82.1286 150.794 80.8897 148.479 80.8897 145.966C80.8897 142.306 83.4448 139.328 86.5859 139.328C89.7269 139.328 92.276 142.306 92.276 145.966C92.276 148.478 91.0392 150.793 89.1121 151.912V153.837C93.9809 154.47 98.003 156.902 99.6409 160.213L99.7117 160.356L99.6114 160.479C98.0375 162.41 96.0511 163.967 93.7975 165.034C91.5438 166.101 89.0798 166.653 86.5852 166.648ZM74.0387 160.295C75.5715 162.13 77.4896 163.606 79.6574 164.619C81.8253 165.631 84.1896 166.156 86.5831 166.156C88.9767 166.155 91.3411 165.63 93.5085 164.616C95.676 163.602 97.5936 162.126 99.1257 160.29C97.4906 157.15 93.5673 154.86 88.8359 154.299L88.6183 154.273V151.622L88.747 151.552C90.5904 150.548 91.7822 148.356 91.7822 145.966C91.7822 142.578 89.4508 139.821 86.5849 139.821C83.7191 139.821 81.3826 142.578 81.3826 145.966C81.3826 148.357 82.5755 150.549 84.422 151.552L84.551 151.622V154.273L84.3334 154.299C79.5986 154.86 75.673 157.151 74.0387 160.295Z" fill="#4D4D4F"/>
<path d="M103.169 204.658C103.168 207.931 102.195 211.131 100.372 213.852C98.5489 216.573 95.9588 218.694 92.9284 219.945C89.8981 221.197 86.5637 221.524 83.3472 220.885C80.1306 220.246 77.1763 218.669 74.8575 216.355C72.5388 214.04 70.9599 211.091 70.3204 207.88C69.681 204.67 70.0097 201.343 71.265 198.319C72.5203 195.295 74.6459 192.71 77.373 190.892C80.1 189.073 83.306 188.103 86.5857 188.103C88.7671 188.091 90.929 188.512 92.9465 189.34C94.964 190.168 96.797 191.387 98.3393 192.927C99.8815 194.466 101.102 196.296 101.932 198.31C102.761 200.323 103.181 202.481 103.169 204.658Z" fill="white"/>
<path d="M86.5857 221.455C82.7601 221.458 79.047 220.162 76.0578 217.779C73.0686 215.396 70.9813 212.069 70.139 208.345C69.2967 204.62 69.7498 200.721 71.4237 197.288C73.0976 193.854 75.8926 191.092 79.3488 189.455C82.805 187.818 86.7164 187.404 90.4398 188.281C94.1632 189.158 97.4766 191.274 99.8348 194.28C102.193 197.287 103.456 201.005 103.415 204.822C103.374 208.64 102.033 212.331 99.6107 215.286C98.0352 217.216 96.0486 218.77 93.7955 219.838C91.5424 220.905 89.0796 221.457 86.5857 221.455ZM86.5857 188.349C83.3558 188.35 80.1984 189.306 77.513 191.097C74.8276 192.888 72.7347 195.434 71.4987 198.412C70.2627 201.39 69.9391 204.667 70.569 207.829C71.1988 210.99 72.7539 213.895 75.0374 216.174C77.3209 218.454 80.2304 220.007 83.3981 220.637C86.5658 221.266 89.8493 220.945 92.8338 219.712C95.8183 218.479 98.3697 216.391 100.165 213.712C101.961 211.033 102.92 207.882 102.922 204.658C102.918 200.335 101.195 196.19 98.1329 193.133C95.0703 190.075 90.9176 188.355 86.5857 188.349V188.349Z" fill="#4D4D4F"/>
<path d="M99.4195 215.13C97.8651 217.029 95.9071 218.56 93.6872 219.611C91.4673 220.663 89.0409 221.208 86.5837 221.209C84.1265 221.209 81.7 220.665 79.4797 219.614C77.2593 218.564 75.3007 217.034 73.7456 215.135C75.3477 211.891 79.3744 209.446 84.3048 208.861V206.575C82.4352 205.559 81.1362 203.346 81.1362 200.773C81.1362 197.242 83.5753 194.382 86.5852 194.382C89.5893 194.382 92.0289 197.242 92.0289 200.773C92.0289 203.346 90.7298 205.56 88.8654 206.575V208.861C93.7906 209.446 97.817 211.891 99.4195 215.13Z" fill="url(#paint4_linear_397_2789)"/>
<path d="M86.5852 221.455C84.0908 221.459 81.6268 220.907 79.3727 219.841C77.1186 218.775 75.1311 217.22 73.5546 215.291L73.4539 215.168L73.5244 215.026C75.1621 211.711 79.1859 209.278 84.0584 208.644V206.719C82.1286 205.602 80.8897 203.286 80.8897 200.773C80.8897 197.113 83.4448 194.135 86.5859 194.135C89.7269 194.135 92.276 197.113 92.276 200.773C92.276 203.285 91.0392 205.6 89.1121 206.719V208.644C93.9809 209.278 98.003 211.709 99.6409 215.021L99.7117 215.163L99.6114 215.286C98.0375 217.217 96.0511 218.774 93.7975 219.841C91.5438 220.908 89.0798 221.46 86.5852 221.455ZM74.0387 215.102C75.5715 216.937 77.4896 218.413 79.6574 219.426C81.8253 220.438 84.1896 220.963 86.5831 220.963C88.9767 220.962 91.3411 220.437 93.5085 219.423C95.676 218.41 97.5936 216.933 99.1257 215.098C97.4906 211.957 93.5673 209.667 88.8359 209.106L88.6183 209.08V206.429L88.747 206.359C90.5904 205.355 91.7822 203.163 91.7822 200.773C91.7822 197.385 89.4508 194.628 86.5849 194.628C83.7191 194.628 81.3826 197.385 81.3826 200.773C81.3826 203.164 82.5755 205.357 84.422 206.359L84.551 206.429V209.08L84.3334 209.106C79.5986 209.667 75.673 211.958 74.0387 215.102Z" fill="#4D4D4F"/>
<path d="M379.31 297.398L378.798 297.279C378.812 297.218 380.248 290.889 379.692 280.54C379.181 270.99 376.821 255.962 368.489 238.61L368.964 238.383C377.338 255.824 379.707 270.933 380.219 280.535C380.774 290.953 379.325 297.335 379.31 297.398Z" fill="#4D4D4F"/>
<path d="M379.827 276.337L379.405 275.773C379.314 275.652 370.272 263.647 362.27 259.228L362.525 258.769C366.765 261.109 371.244 265.525 374.256 268.817C376.709 271.498 378.613 273.89 379.414 274.921C380.369 266.032 387.769 249.416 387.845 249.245L388.325 249.461C388.247 249.635 380.498 267.035 379.878 275.636L379.827 276.337Z" fill="#4D4D4F"/>
<path d="M375.905 256.721C375.905 256.721 360.769 250.045 364.749 230.848C364.749 230.848 381.637 236.125 375.905 256.721Z" fill="#60A899"/>
<path d="M376.077 257.084L375.799 256.961C375.642 256.892 371.919 255.219 368.63 251.148C365.597 247.391 362.415 240.811 364.492 230.795L364.551 230.511L364.829 230.598C367.84 231.688 370.535 233.505 372.673 235.886C378.547 242.411 377.811 250.856 376.159 256.793L376.077 257.084ZM364.947 231.196C363.034 240.846 366.107 247.188 369.04 250.819C370.873 253.095 373.151 254.976 375.735 256.347C377.938 248.157 376.752 241.215 372.296 236.254C370.27 234.024 367.754 232.293 364.947 231.196H364.947Z" fill="#60A899"/>
<path d="M383.407 261.48C383.407 261.48 376.96 247.135 391.489 236.8C391.489 236.8 400.012 251.342 383.407 261.48Z" fill="#60A899"/>
<path d="M383.289 261.859L383.167 261.587C382.083 258.86 381.595 255.934 381.737 253.004C381.926 248.495 383.745 241.987 391.336 236.586L391.571 236.419L391.716 236.665C393.137 239.337 393.899 242.309 393.938 245.333C394.03 253.561 388.336 258.776 383.543 261.702L383.289 261.859ZM391.4 237.187C384.194 242.421 382.45 248.667 382.264 253.004C382.149 255.757 382.58 258.507 383.533 261.093C390.152 256.967 393.476 251.677 393.413 245.362C393.36 242.522 392.672 239.729 391.4 237.187Z" fill="#60A899"/>
<path d="M372.816 267.83C372.816 267.83 357.117 269.125 352.184 252.013C352.184 252.013 368.76 248.829 372.816 267.83Z" fill="#60A899"/>
<path d="M372.029 268.117C369.363 268.092 366.726 267.571 364.252 266.582C360.054 264.904 354.509 261.027 351.931 252.085L351.851 251.808L352.134 251.754C355.131 251.305 358.192 251.577 361.063 252.546C365.371 254.009 370.952 257.838 373.073 267.774L373.135 268.066L372.837 268.09C372.796 268.095 372.509 268.117 372.029 268.117ZM352.52 252.226C355.073 260.761 360.403 264.478 364.448 266.095C367.005 267.114 369.739 267.62 372.493 267.583C370.814 260.076 366.808 255.051 360.894 253.044C358.198 252.154 355.338 251.874 352.52 252.226H352.52Z" fill="#60A899"/>
<path d="M395.737 323.399H363.587L360.907 285.438H398.417L395.737 323.399Z" fill="white"/>
<path d="M395.967 323.645H363.357L363.341 323.416L360.642 285.192H398.682L395.967 323.645ZM363.817 323.152H395.507L398.152 285.684H361.172L363.817 323.152Z" fill="url(#paint5_linear_397_2789)"/>
<path d="M349.315 168.314H401.285V201.605H349.315V168.314Z" fill="#60A899"/>
<path d="M349.315 177.074H401.285V181.862H349.315V177.074Z" fill="white"/>
<path d="M357.391 190.157H378.226V194.986H357.391V190.157Z" fill="white"/>
<path d="M389.872 187.724C390.832 187.724 391.771 188.008 392.57 188.541C393.369 189.074 393.992 189.831 394.359 190.717C394.727 191.602 394.823 192.577 394.636 193.518C394.448 194.458 393.986 195.322 393.306 196C392.627 196.678 391.762 197.139 390.819 197.326C389.877 197.513 388.9 197.417 388.013 197.05C387.125 196.684 386.367 196.062 385.833 195.265C385.299 194.468 385.014 193.531 385.014 192.572C385.014 191.286 385.526 190.053 386.437 189.144C387.348 188.235 388.583 187.724 389.872 187.724V187.724Z" fill="white"/>
<path d="M248.759 155.839C255.774 155.839 262.501 158.62 267.461 163.571C272.422 168.521 275.208 175.235 275.208 182.236V260.064H222.31V182.236C222.31 175.235 225.096 168.521 230.056 163.571C235.017 158.62 241.744 155.839 248.759 155.839V155.839Z" fill="white"/>
<path d="M275.455 260.31H222.062V182.237C222.062 175.17 224.875 168.393 229.882 163.397C234.888 158.4 241.678 155.593 248.759 155.593C255.839 155.593 262.629 158.4 267.636 163.397C272.642 168.393 275.455 175.17 275.455 182.237V260.31ZM222.556 259.818H274.962V182.237C274.938 175.317 272.167 168.688 267.255 163.803C262.344 158.918 255.693 156.176 248.759 156.176C241.825 156.176 235.174 158.918 230.263 163.803C225.351 168.688 222.58 175.317 222.556 182.237V259.818Z" fill="#4D4D4F"/>
<path d="M280.385 271.315L300.712 361.318H306.077L281.889 261.02C281.889 261.02 279.922 268.893 280.385 271.315Z" fill="#4D4D4F"/>
<path d="M224.296 266.183C223.098 266.183 221.938 266.6 221.015 267.362C220.092 268.125 219.465 269.185 219.241 270.359L203.996 360.155H198.631L217.737 260.064C217.737 260.064 227.056 266.183 224.296 266.183Z" fill="#4D4D4F"/>
<path d="M272.47 275.606H225.709C218.902 275.606 213.383 270.318 213.383 263.794C213.383 257.271 218.902 251.982 225.709 251.982H272.47C279.277 251.982 284.797 257.271 284.797 263.794C284.797 270.318 279.278 275.606 272.47 275.606Z" fill="white"/>
<path d="M272.47 275.852H225.709C218.776 275.852 213.136 270.443 213.136 263.794C213.136 257.145 218.776 251.736 225.709 251.736H272.47C279.403 251.736 285.043 257.146 285.043 263.794C285.043 270.443 279.403 275.852 272.47 275.852ZM225.709 252.229C219.049 252.229 213.63 257.417 213.63 263.794C213.63 270.172 219.049 275.36 225.709 275.36H272.47C279.131 275.36 284.549 270.171 284.549 263.794C284.549 257.417 279.131 252.229 272.47 252.229H225.709Z" fill="#4D4D4F"/>
<path d="M237.198 322.532L237.111 356.429L261.96 359.326L260.836 322.206C260.75 319.377 259.648 316.673 257.73 314.587C255.813 312.502 253.208 311.173 250.391 310.845C248.737 310.652 247.06 310.81 245.471 311.309C243.883 311.808 242.417 312.636 241.172 313.74C239.926 314.843 238.928 316.197 238.244 317.712C237.559 319.228 237.203 320.87 237.198 322.532Z" fill="white"/>
<path d="M262.215 359.604L236.864 356.648L236.952 322.532H237.198H236.952C236.96 319.372 238.212 316.341 240.438 314.094C242.665 311.847 245.687 310.563 248.853 310.519C252.019 310.476 255.075 311.676 257.363 313.86C259.651 316.045 260.987 319.04 261.083 322.199L262.215 359.604ZM237.358 356.21L261.704 359.048L260.589 322.214C260.5 319.182 259.221 316.307 257.026 314.209C254.831 312.111 251.898 310.958 248.859 311C245.821 311.042 242.92 312.275 240.785 314.433C238.649 316.591 237.45 319.5 237.445 322.533L237.358 356.21Z" fill="#4D4D4F"/>
<path d="M249.536 348.11C248.169 346.638 246.511 345.463 244.667 344.661C242.823 343.858 240.832 343.445 238.821 343.447C236.899 343.447 234.996 343.825 233.221 344.559C231.445 345.293 229.832 346.369 228.473 347.725C227.114 349.081 226.036 350.691 225.301 352.463C224.566 354.235 224.187 356.134 224.187 358.052V361.969H263.221V351.167C263.222 350.963 263.179 350.76 263.095 350.574C263.01 350.388 262.887 350.222 262.734 350.087C262.58 349.952 262.399 349.852 262.203 349.792C262.007 349.733 261.801 349.716 261.598 349.743C256.081 350.494 249.536 348.11 249.536 348.11Z" fill="white"/>
<path d="M263.467 362.215H223.939V358.053C223.938 355.075 224.835 352.166 226.512 349.703C228.19 347.24 230.57 345.338 233.345 344.243C236.119 343.148 239.16 342.91 242.072 343.562C244.983 344.214 247.631 345.724 249.671 347.897C250.292 348.114 256.425 350.2 261.563 349.498C261.801 349.466 262.043 349.486 262.273 349.555C262.502 349.625 262.714 349.743 262.894 349.9C263.075 350.058 263.219 350.253 263.318 350.471C263.416 350.689 263.467 350.926 263.467 351.165V362.215ZM224.433 361.722H262.974V351.166C262.974 350.996 262.937 350.828 262.866 350.673C262.796 350.518 262.693 350.379 262.564 350.267C262.438 350.157 262.289 350.075 262.128 350.026C261.967 349.978 261.797 349.965 261.631 349.987C256.577 350.673 250.615 348.741 249.602 348.394L249.529 348.466L249.355 348.279C247.387 346.166 244.828 344.694 242.01 344.053C239.192 343.413 236.246 343.635 233.556 344.69C230.866 345.744 228.557 347.584 226.93 349.968C225.303 352.351 224.433 355.169 224.433 358.053L224.433 361.722Z" fill="#4D4D4F"/>
<path d="M230.633 335.364L267.619 334.549L262.392 253.781V253.778L262.163 250.251V250.245C261.48 246.328 259.402 242.79 256.311 240.282C253.221 237.774 249.326 236.465 245.345 236.597C241.364 236.729 237.565 238.292 234.647 240.998C231.729 243.705 229.89 247.373 229.468 251.326C229.468 251.328 229.467 251.335 229.468 251.338L229.523 255.253V255.259L230.633 335.364Z" fill="#4D4D4F"/>
<path d="M230.39 335.616L230.387 335.367L229.218 251.336L229.223 251.295C229.651 247.283 231.518 243.561 234.479 240.814C237.441 238.067 241.297 236.481 245.338 236.348C249.378 236.215 253.331 237.544 256.467 240.089C259.604 242.635 261.713 246.226 262.406 250.201L262.41 250.234L267.883 334.788L230.39 335.616ZM229.767 255.226V255.255L230.876 335.112L267.355 334.308L261.916 250.266C261.238 246.414 259.191 242.936 256.149 240.47C253.108 238.004 249.277 236.716 245.36 236.843C241.444 236.971 237.705 238.504 234.831 241.163C231.957 243.821 230.141 247.425 229.716 251.313L229.718 251.325L229.711 251.362L229.767 255.226Z" fill="#4D4D4F"/>
<path d="M229.836 255.21V255.216C230.378 259.218 232.4 262.873 235.506 265.462C238.612 268.051 242.576 269.385 246.619 269.204C250.661 269.022 254.489 267.337 257.349 264.48C260.209 261.623 261.894 257.801 262.073 253.767V253.764C262.123 252.606 262.048 251.446 261.848 250.305V250.299C261.178 246.458 259.14 242.988 256.109 240.528C253.079 238.068 249.259 236.785 245.355 236.914C241.45 237.043 237.724 238.576 234.863 241.23C232.001 243.885 230.198 247.482 229.784 251.359C229.784 251.362 229.783 251.368 229.784 251.371C229.648 252.648 229.665 253.937 229.836 255.21Z" fill="#4D4D4F"/>
<path d="M208.37 319.877L194.363 350.756L170.549 343.106L186.999 309.795C188.253 307.256 190.379 305.251 192.991 304.147C195.602 303.043 198.524 302.913 201.224 303.78C202.809 304.289 204.269 305.127 205.507 306.239C206.746 307.351 207.734 308.711 208.409 310.231C209.084 311.751 209.429 313.396 209.422 315.058C209.416 316.721 209.057 318.363 208.37 319.877Z" fill="white"/>
<path d="M194.496 351.058L170.2 343.252L186.776 309.686C188.174 306.849 190.634 304.675 193.625 303.632C196.616 302.59 199.897 302.763 202.761 304.114C205.625 305.465 207.842 307.886 208.933 310.853C210.025 313.821 209.903 317.099 208.595 319.978L194.496 351.058ZM170.894 342.958L194.227 350.454L208.144 319.775C209.396 317.014 209.511 313.872 208.463 311.028C207.416 308.183 205.29 305.863 202.545 304.568C199.8 303.273 196.654 303.107 193.787 304.105C190.92 305.103 188.561 307.186 187.218 309.904L170.894 342.958Z" fill="#4D4D4F"/>
<path d="M201.153 337.142L195.395 350.101C195.221 350.494 194.907 350.808 194.514 350.983C194.122 351.159 193.678 351.183 193.269 351.052L151.755 337.716C151.52 337.64 151.305 337.516 151.122 337.351C150.939 337.187 150.794 336.985 150.694 336.76C150.595 336.536 150.544 336.293 150.546 336.047C150.547 335.801 150.6 335.559 150.702 335.335C152.422 331.56 155.472 328.548 159.273 326.871C163.073 325.195 167.358 324.97 171.313 326.241L178.008 328.392C180.943 331.244 184.473 333.415 188.345 334.751C192.216 336.088 196.336 336.556 200.409 336.124C200.537 336.11 200.665 336.13 200.782 336.182C200.899 336.234 201 336.315 201.076 336.418C201.151 336.521 201.198 336.643 201.212 336.77C201.225 336.897 201.205 337.025 201.153 337.142Z" fill="white"/>
<path d="M193.805 351.382C193.597 351.382 193.391 351.35 193.193 351.286L151.679 337.95C151.412 337.864 151.166 337.722 150.957 337.535C150.748 337.347 150.582 337.117 150.469 336.861C150.355 336.604 150.297 336.327 150.299 336.046C150.301 335.766 150.362 335.489 150.478 335.234C152.22 331.401 155.314 328.342 159.17 326.64C163.027 324.939 167.376 324.713 171.388 326.006L178.14 328.175L178.181 328.215C181.087 331.047 184.585 333.202 188.423 334.527C192.262 335.852 196.346 336.313 200.384 335.879C200.554 335.861 200.727 335.888 200.883 335.958C201.04 336.027 201.175 336.136 201.276 336.274C201.376 336.412 201.439 336.575 201.457 336.744C201.475 336.914 201.448 337.086 201.379 337.242L195.62 350.202C195.465 350.553 195.211 350.852 194.889 351.061C194.566 351.271 194.19 351.382 193.805 351.382ZM166.111 325.669C162.907 325.668 159.771 326.589 157.078 328.322C154.385 330.054 152.25 332.524 150.927 335.437C150.84 335.629 150.794 335.837 150.793 336.048C150.791 336.259 150.834 336.468 150.92 336.661C151.005 336.854 151.13 337.027 151.287 337.168C151.444 337.309 151.629 337.416 151.83 337.481L193.344 350.817C193.695 350.931 194.077 350.911 194.414 350.76C194.751 350.61 195.02 350.339 195.169 350.002L200.928 337.042C200.962 336.965 200.975 336.88 200.967 336.796C200.958 336.713 200.927 336.633 200.877 336.564C200.827 336.496 200.76 336.442 200.683 336.408C200.605 336.374 200.521 336.361 200.437 336.369C196.336 336.81 192.189 336.343 188.29 335.002C184.39 333.66 180.836 331.477 177.878 328.608L171.238 326.475C169.582 325.941 167.852 325.67 166.111 325.669Z" fill="#4D4D4F"/>
<path d="M204.576 255.965L204.574 255.971C203.327 259.813 203.566 263.981 205.244 267.656C206.922 271.331 209.917 274.246 213.64 275.828C217.364 277.41 221.545 277.543 225.362 276.202C229.179 274.861 232.356 272.143 234.265 268.583V268.58C234.813 267.558 235.248 266.48 235.563 265.364L235.565 265.359C236.626 261.606 236.293 257.598 234.627 254.071C232.96 250.545 230.073 247.739 226.497 246.169C222.921 244.6 218.897 244.373 215.167 245.531C211.436 246.689 208.251 249.153 206.197 252.47C206.197 252.473 206.192 252.478 206.191 252.481C205.515 253.573 204.972 254.743 204.576 255.965Z" fill="#4D4D4F"/>
<path d="M279.856 249.422C279.856 245.09 278.392 240.885 275.699 237.487C273.007 234.088 269.244 231.696 265.02 230.698C260.797 229.699 256.358 230.152 252.424 231.984C248.491 233.815 245.291 236.918 243.344 240.79L218.62 244.326L215.15 245.031C211.323 246.314 208.063 248.885 205.927 252.303C205.927 252.306 205.921 252.311 205.92 252.314L205.73 252.724C205.337 253.429 204.997 254.163 204.712 254.918L204.272 255.866L204.27 255.872L175.161 320.539L210.435 331.869L232.216 274.83L262.026 268.605C266.874 268.241 271.405 266.061 274.711 262.504C278.018 258.947 279.855 254.274 279.856 249.422Z" fill="#4D4D4F"/>
<path d="M210.582 332.176L174.824 320.688L204.488 254.814C204.775 254.053 205.118 253.315 205.514 252.604L205.718 252.173C206.155 251.467 206.644 250.795 207.181 250.162C209.236 247.648 211.979 245.785 215.075 244.797L218.571 244.085L243.182 240.564C244.73 237.535 247.046 234.962 249.899 233.103C252.752 231.243 256.043 230.161 259.445 229.964C262.846 229.767 266.241 230.461 269.29 231.979C272.339 233.497 274.938 235.784 276.827 238.614C278.717 241.445 279.831 244.719 280.059 248.112C280.288 251.505 279.623 254.899 278.13 257.956C276.637 261.013 274.369 263.627 271.55 265.539C268.731 267.45 265.461 268.592 262.063 268.851L232.401 275.045L210.582 332.176ZM175.499 320.388L210.288 331.564L232.035 274.617L232.167 274.59L262.009 268.36C265.327 268.11 268.521 266.996 271.273 265.13C274.025 263.263 276.238 260.71 277.693 257.723C279.147 254.737 279.792 251.422 279.562 248.109C279.332 244.796 278.237 241.602 276.384 238.843C274.531 236.085 271.987 233.86 269.003 232.39C266.02 230.919 262.703 230.255 259.382 230.463C256.062 230.671 252.854 231.744 250.078 233.576C247.303 235.407 245.057 237.932 243.565 240.9L243.507 241.015L218.655 244.57L215.2 245.273C213.367 245.86 211.654 246.768 210.14 247.954C209.19 248.698 208.326 249.544 207.562 250.477C207.047 251.084 206.577 251.729 206.156 252.405L206.138 252.436L205.955 252.827C205.566 253.527 205.228 254.255 204.945 255.005L204.497 255.973L175.499 320.388Z" fill="#4D4D4F"/>
<path d="M275.961 186.942C278.307 186.942 280.599 187.636 282.549 188.936C284.499 190.237 286.019 192.085 286.916 194.247C287.814 196.41 288.048 198.789 287.591 201.085C287.133 203.38 286.004 205.489 284.346 207.144C282.687 208.799 280.575 209.926 278.275 210.382C275.975 210.839 273.59 210.604 271.424 209.709C269.257 208.813 267.405 207.296 266.102 205.35C264.8 203.404 264.104 201.116 264.104 198.776C264.104 195.637 265.353 192.627 267.577 190.408C269.801 188.189 272.817 186.942 275.961 186.942V186.942Z" fill="#4D4D4F"/>
<path d="M268.732 208.166L282.473 188.876L310.873 209.027L297.132 228.316L268.732 208.166Z" fill="#60A899"/>
<path d="M297.169 228.531L268.516 208.203L282.436 188.662L311.088 208.99L297.169 228.531ZM268.947 208.13L297.095 228.102L310.657 209.063L282.509 189.091L268.947 208.13Z" fill="#60A899"/>
<path d="M223.269 186.942C225.614 186.942 227.906 187.636 229.856 188.937C231.806 190.237 233.326 192.085 234.224 194.248C235.121 196.41 235.356 198.789 234.898 201.085C234.441 203.38 233.311 205.489 231.653 207.144C229.995 208.799 227.882 209.926 225.582 210.382C223.282 210.839 220.898 210.605 218.731 209.709C216.565 208.813 214.713 207.297 213.41 205.351C212.107 203.405 211.412 201.117 211.412 198.776C211.412 195.638 212.661 192.628 214.884 190.408C217.108 188.189 220.124 186.942 223.269 186.942V186.942Z" fill="#4D4D4F"/>
<path d="M202.098 228.317L188.357 209.027L216.758 188.877L230.498 208.166L202.098 228.317Z" fill="#60A899"/>
<path d="M202.062 228.531L201.973 228.406L188.143 208.99L188.268 208.901L216.795 188.662L216.883 188.787L230.713 208.203L230.588 208.292L202.062 228.531ZM188.573 209.063L202.134 228.102L230.283 208.13L216.722 189.091L188.573 209.063Z" fill="#60A899"/>
<path d="M275.42 231.464H223.648L217.154 200.558C216.729 198.095 217.041 195.561 218.053 193.275C219.766 189.507 223.167 186.941 227.084 186.941H272.035C275.951 186.941 279.353 189.507 281.065 193.275C282.076 195.56 282.39 198.092 281.966 200.554L275.42 231.464Z" fill="#60A899"/>
<path d="M275.546 231.618H223.524L223.499 231.495L217.004 200.588C216.57 198.093 216.887 195.526 217.914 193.21C219.716 189.248 223.23 186.786 227.085 186.786H272.037C275.893 186.786 279.406 189.249 281.208 193.21C282.234 195.522 282.552 198.086 282.12 200.577L275.546 231.618ZM223.774 231.31H275.296L281.816 200.522C282.236 198.092 281.925 195.593 280.925 193.339C279.174 189.487 275.767 187.094 272.035 187.094H227.084C223.351 187.094 219.945 189.487 218.194 193.339C217.192 195.597 216.883 198.1 217.306 200.532L223.774 231.31Z" fill="#60A899"/>
<path d="M223.421 186.94H275.697C278.878 186.94 281.928 188.201 284.177 190.446C286.426 192.691 287.69 195.735 287.69 198.91C287.69 202.084 286.426 205.129 284.177 207.373C281.928 209.618 278.878 210.879 275.697 210.879H223.421C220.241 210.879 217.19 209.618 214.941 207.373C212.692 205.129 211.428 202.084 211.428 198.91V198.91C211.428 195.735 212.692 192.691 214.941 190.446C217.19 188.201 220.241 186.94 223.421 186.94V186.94Z" fill="#60A899"/>
<path d="M275.697 211.034H223.421C221.821 211.042 220.235 210.734 218.754 210.128C217.273 209.523 215.926 208.631 214.792 207.504C213.657 206.378 212.757 205.039 212.143 203.564C211.529 202.089 211.212 200.507 211.212 198.91C211.212 197.313 211.529 195.732 212.143 194.257C212.757 192.782 213.657 191.443 214.792 190.316C215.926 189.19 217.273 188.298 218.754 187.692C220.235 187.087 221.821 186.779 223.421 186.787H275.697C278.908 186.803 281.982 188.088 284.247 190.359C286.512 192.631 287.783 195.705 287.783 198.91C287.783 202.115 286.512 205.189 284.247 207.461C281.982 209.733 278.908 211.017 275.697 211.034ZM223.421 187.095C221.861 187.087 220.315 187.387 218.872 187.977C217.429 188.567 216.116 189.436 215.011 190.534C213.905 191.632 213.027 192.937 212.429 194.375C211.83 195.812 211.522 197.353 211.522 198.91C211.522 200.467 211.83 202.008 212.429 203.446C213.027 204.883 213.905 206.189 215.011 207.286C216.116 208.384 217.429 209.253 218.872 209.844C220.315 210.434 221.861 210.734 223.421 210.726H275.697C278.826 210.71 281.822 209.458 284.029 207.244C286.236 205.03 287.475 202.033 287.475 198.91C287.475 195.787 286.236 192.791 284.029 190.577C281.822 188.363 278.826 187.111 275.697 187.095H223.421Z" fill="#60A899"/>
<path d="M279.158 243.463L219.913 244.483C219.913 228.109 233.177 213.815 249.535 213.815C257.403 213.826 264.944 216.956 270.499 222.516C276.055 228.076 279.169 235.611 279.158 243.463Z" fill="#60A899"/>
<path d="M219.759 244.639V244.483C219.759 227.776 233.396 213.662 249.535 213.662C265.955 213.662 279.313 227.031 279.313 243.464V243.615L279.161 243.618L219.759 244.639ZM249.535 213.969C233.613 213.969 220.153 227.856 220.068 244.326L279.004 243.312C278.922 227.119 265.734 213.969 249.535 213.969H249.535Z" fill="#60A899"/>
<path d="M244.036 177.751H255.085V186.282C255.085 187.006 254.942 187.723 254.664 188.392C254.387 189.061 253.98 189.669 253.467 190.181C252.954 190.693 252.345 191.099 251.675 191.376C251.004 191.653 250.286 191.796 249.56 191.795C248.835 191.795 248.117 191.653 247.446 191.376C246.776 191.099 246.167 190.693 245.654 190.181C245.141 189.669 244.734 189.061 244.457 188.392C244.179 187.723 244.036 187.006 244.036 186.282V177.751Z" fill="white"/>
<path d="M249.56 192.042C248.03 192.04 246.564 191.432 245.482 190.352C244.401 189.272 243.793 187.809 243.791 186.282V177.504H255.332V186.282C255.331 187.809 254.722 189.273 253.64 190.353C252.558 191.433 251.09 192.04 249.56 192.042ZM244.284 177.997V186.282C244.284 187.679 244.84 189.018 245.83 190.006C246.82 190.994 248.162 191.549 249.562 191.549C250.961 191.549 252.304 190.994 253.294 190.006C254.283 189.018 254.839 187.679 254.839 186.282V177.997H244.284Z" fill="#4D4D4F"/>
<path d="M243.458 142.039H255.663C257.632 142.039 259.582 142.426 261.402 143.178C263.222 143.93 264.875 145.033 266.268 146.423C267.66 147.812 268.765 149.463 269.519 151.279C270.272 153.095 270.66 155.041 270.66 157.006V175.877H247.37C242.355 175.877 237.545 173.889 233.999 170.35C230.453 166.811 228.461 162.011 228.461 157.006C228.461 153.037 230.041 149.23 232.853 146.423C235.666 143.616 239.481 142.039 243.458 142.039V142.039Z" fill="#4D4D4F"/>
<path d="M249.56 151.192C251.123 151.192 252.671 151.499 254.115 152.096C255.559 152.693 256.871 153.568 257.977 154.671C259.082 155.774 259.959 157.084 260.557 158.525C261.155 159.966 261.463 161.511 261.463 163.071V170.206C261.463 173.357 260.209 176.378 257.977 178.606C255.745 180.834 252.717 182.086 249.56 182.086C247.997 182.086 246.449 181.778 245.005 181.181C243.561 180.584 242.249 179.709 241.143 178.606C240.038 177.503 239.161 176.194 238.563 174.752C237.965 173.311 237.657 171.766 237.657 170.206V163.071C237.657 159.921 238.911 156.899 241.143 154.671C243.375 152.443 246.403 151.192 249.56 151.192V151.192Z" fill="white"/>
<path d="M249.559 182.332C246.338 182.328 243.25 181.049 240.972 178.776C238.695 176.503 237.413 173.421 237.41 170.206V163.071C237.41 159.855 238.69 156.771 240.969 154.497C243.247 152.223 246.338 150.945 249.56 150.945C252.782 150.945 255.873 152.223 258.151 154.497C260.43 156.771 261.71 159.855 261.71 163.071V170.205C261.707 173.42 260.425 176.503 258.147 178.776C255.869 181.05 252.781 182.328 249.559 182.332ZM249.559 151.438C246.469 151.441 243.507 152.668 241.321 154.849C239.136 157.03 237.907 159.987 237.904 163.071V170.205C237.904 173.291 239.132 176.249 241.318 178.431C243.504 180.613 246.469 181.838 249.56 181.838C252.652 181.838 255.616 180.613 257.802 178.431C259.988 176.249 261.216 173.291 261.216 170.205V163.071C261.213 159.987 259.984 157.03 257.798 154.849C255.613 152.668 252.65 151.441 249.559 151.438Z" fill="#4D4D4F"/>
<path d="M247.451 143.899C248.218 144.518 248.856 145.282 249.327 146.146C249.798 147.011 250.094 147.96 250.198 148.939C250.301 149.918 250.211 150.907 249.932 151.851C249.652 152.795 249.189 153.675 248.569 154.44L243.138 161.142C242.518 161.908 241.753 162.544 240.886 163.014C240.02 163.484 239.069 163.779 238.088 163.883C237.108 163.986 236.116 163.896 235.17 163.617C234.224 163.338 233.343 162.876 232.576 162.257C231.027 161.007 230.04 159.194 229.83 157.218C229.621 155.241 230.206 153.262 231.459 151.716L236.89 145.014C238.142 143.468 239.958 142.483 241.939 142.274C243.92 142.065 245.903 142.649 247.451 143.899V143.899Z" fill="#4D4D4F"/>
<path d="M267.451 162.177C266.691 162.804 265.814 163.276 264.872 163.565C263.929 163.854 262.938 163.955 261.956 163.862C260.975 163.769 260.021 163.484 259.149 163.023C258.278 162.562 257.506 161.934 256.878 161.175L251.375 154.532C250.747 153.773 250.275 152.898 249.985 151.957C249.696 151.016 249.594 150.028 249.688 149.048C249.781 148.068 250.067 147.116 250.529 146.246C250.991 145.377 251.62 144.606 252.38 143.979C253.915 142.713 255.891 142.107 257.874 142.295C259.857 142.483 261.684 143.449 262.953 144.981L268.455 151.625C269.724 153.157 270.331 155.13 270.143 157.109C269.955 159.088 268.986 160.911 267.451 162.177V162.177Z" fill="#4D4D4F"/>
<path d="M266.173 165.003V168.275C266.173 168.894 265.926 169.488 265.487 169.926C265.048 170.364 264.453 170.61 263.832 170.61C263.211 170.61 262.616 170.364 262.177 169.926C261.737 169.487 261.491 168.893 261.491 168.273V165.003C261.491 164.383 261.737 163.789 262.177 163.35C262.616 162.912 263.211 162.666 263.832 162.666V162.666C264.453 162.666 265.049 162.912 265.488 163.35C265.927 163.789 266.173 164.383 266.173 165.003V165.003Z" fill="white"/>
<path d="M263.832 170.857C263.146 170.857 262.488 170.584 262.003 170.1C261.518 169.616 261.245 168.96 261.244 168.275V165.002C261.24 164.66 261.304 164.321 261.433 164.004C261.561 163.688 261.751 163.4 261.992 163.157C262.232 162.914 262.519 162.721 262.835 162.59C263.151 162.458 263.489 162.39 263.832 162.39C264.174 162.39 264.513 162.458 264.829 162.59C265.144 162.721 265.431 162.914 265.672 163.157C265.913 163.4 266.102 163.688 266.231 164.004C266.359 164.321 266.423 164.66 266.42 165.002V168.273C266.419 168.958 266.146 169.615 265.661 170.099C265.176 170.584 264.518 170.856 263.832 170.857ZM263.832 162.913C263.277 162.914 262.745 163.135 262.352 163.527C261.959 163.919 261.739 164.45 261.738 165.004V168.276C261.734 168.552 261.786 168.827 261.89 169.083C261.993 169.34 262.147 169.573 262.342 169.77C262.537 169.967 262.769 170.123 263.025 170.23C263.28 170.336 263.555 170.391 263.832 170.391C264.109 170.391 264.384 170.336 264.639 170.23C264.895 170.123 265.127 169.967 265.322 169.77C265.517 169.573 265.671 169.34 265.774 169.083C265.878 168.827 265.93 168.552 265.927 168.276V165.002C265.925 164.448 265.704 163.917 265.312 163.525C264.919 163.134 264.387 162.914 263.832 162.913V162.913Z" fill="#4D4D4F"/>
<path d="M237.696 165.003V168.275C237.696 168.894 237.449 169.488 237.01 169.926C236.571 170.364 235.975 170.61 235.355 170.61C234.734 170.61 234.138 170.364 233.699 169.926C233.26 169.487 233.013 168.893 233.013 168.273V165.003C233.013 164.383 233.26 163.789 233.699 163.35C234.138 162.912 234.734 162.666 235.355 162.666V162.666C235.975 162.666 236.571 162.912 237.01 163.35C237.449 163.789 237.696 164.383 237.696 165.003V165.003Z" fill="white"/>
<path d="M235.355 170.858C234.669 170.857 234.011 170.584 233.526 170.1C233.041 169.616 232.768 168.96 232.767 168.275V165.002C232.767 164.317 233.04 163.66 233.525 163.176C234.01 162.691 234.669 162.419 235.355 162.419C236.041 162.419 236.7 162.691 237.185 163.176C237.67 163.66 237.943 164.317 237.943 165.002V168.274C237.942 168.958 237.669 169.615 237.184 170.1C236.699 170.584 236.041 170.857 235.355 170.858ZM235.355 162.914C234.8 162.915 234.268 163.135 233.875 163.527C233.482 163.919 233.261 164.45 233.26 165.004V168.276C233.257 168.552 233.309 168.827 233.412 169.084C233.516 169.34 233.67 169.573 233.865 169.77C234.059 169.967 234.292 170.123 234.547 170.23C234.803 170.337 235.078 170.392 235.355 170.392C235.632 170.392 235.907 170.337 236.162 170.23C236.418 170.123 236.65 169.967 236.845 169.77C237.04 169.573 237.194 169.34 237.297 169.084C237.401 168.827 237.452 168.552 237.449 168.276V165.002C237.448 164.448 237.227 163.917 236.834 163.526C236.442 163.134 235.91 162.914 235.355 162.913V162.914Z" fill="#4D4D4F"/>
<path d="M242.963 188.357H256.11C256.724 188.357 257.314 188.601 257.749 189.035C258.183 189.469 258.427 190.057 258.427 190.67V221.576C258.427 222.189 258.183 222.777 257.749 223.211C257.314 223.645 256.724 223.889 256.11 223.889H242.963C242.348 223.889 241.759 223.645 241.324 223.211C240.889 222.777 240.645 222.189 240.645 221.576V190.67C240.645 190.057 240.889 189.469 241.324 189.035C241.759 188.601 242.348 188.357 242.963 188.357Z" fill="#4D4D4F"/>
<path d="M244.282 190.493C245.133 191.608 243.87 192.868 242.753 192.019C241.903 190.905 243.165 189.644 244.282 190.493Z" fill="white"/>
<path d="M244.282 193.101C245.133 194.215 243.87 195.475 242.753 194.626C241.903 193.513 243.165 192.251 244.282 193.101Z" fill="white"/>
<path d="M246.726 191.686C247.576 192.801 246.314 194.061 245.197 193.212C244.348 192.097 245.611 190.837 246.726 191.686Z" fill="white"/>
<path d="M248.805 214.515L240.794 214.682C240.803 214.419 240.801 214.156 240.794 213.894L249.198 211.502C249.566 211.398 249.91 211.222 250.209 210.985C250.508 210.748 250.758 210.455 250.944 210.121C251.13 209.788 251.248 209.421 251.292 209.043C251.335 208.664 251.304 208.28 251.199 207.913C251.095 207.546 250.918 207.204 250.681 206.905C250.443 206.606 250.149 206.357 249.816 206.172C249.482 205.986 249.114 205.868 248.734 205.825C248.355 205.781 247.97 205.812 247.603 205.917L239.201 208.308C239.053 208.053 238.895 207.804 238.728 207.56L245.65 203.47C246.314 203.078 246.795 202.438 246.987 201.692C247.178 200.946 247.065 200.154 246.672 199.491C246.477 199.163 246.22 198.876 245.914 198.648C245.608 198.419 245.261 198.252 244.89 198.158C244.52 198.063 244.135 198.042 243.757 198.096C243.378 198.15 243.014 198.277 242.686 198.472L234.06 203.569C231.963 202.567 229.617 202.205 227.314 202.527L227.312 202.511L192.8 207.31V207.321C189.777 207.854 187.08 209.536 185.275 212.014C183.47 214.491 182.698 217.57 183.122 220.604C183.545 223.638 185.131 226.389 187.546 228.28C189.961 230.17 193.017 231.052 196.07 230.74L196.072 230.751L230.059 226.025C231.82 225.861 233.522 225.305 235.04 224.398C236.557 223.491 237.852 222.256 238.828 220.784C238.884 220.699 238.934 220.614 238.988 220.529L248.927 220.322C249.699 220.306 250.432 219.984 250.966 219.428C251.501 218.872 251.792 218.127 251.775 217.357C251.759 216.587 251.437 215.855 250.88 215.322C250.323 214.789 249.577 214.499 248.805 214.515H248.805Z" fill="white"/>
<path d="M194.836 231.05C191.833 231.041 188.941 229.919 186.721 227.901C184.501 225.883 183.112 223.113 182.824 220.13C182.536 217.147 183.369 214.164 185.162 211.76C186.955 209.356 189.579 207.703 192.525 207.122L192.523 207.111L192.765 207.066L227.519 202.234L227.522 202.252C229.751 201.984 232.011 202.344 234.046 203.29L242.559 198.26C242.916 198.046 243.312 197.905 243.724 197.844C244.135 197.783 244.555 197.804 244.959 197.906C245.363 198.008 245.742 198.188 246.076 198.437C246.409 198.686 246.69 198.998 246.902 199.356C247.114 199.713 247.253 200.109 247.311 200.52C247.369 200.932 247.345 201.35 247.241 201.753C247.136 202.155 246.953 202.532 246.701 202.863C246.45 203.194 246.135 203.473 245.776 203.682L239.078 207.639C239.16 207.765 239.24 207.892 239.316 208.018L247.535 205.679C248.338 205.456 249.197 205.56 249.924 205.966C250.651 206.373 251.187 207.051 251.416 207.851C251.644 208.65 251.546 209.508 251.144 210.236C250.741 210.965 250.067 211.505 249.267 211.738L241.045 214.078C241.047 214.202 241.048 214.317 241.045 214.429L248.799 214.268C249.213 214.259 249.625 214.332 250.012 214.482C250.398 214.633 250.751 214.857 251.05 215.144C251.349 215.43 251.589 215.772 251.755 216.151C251.922 216.53 252.012 216.938 252.021 217.352C252.03 217.765 251.957 218.177 251.806 218.562C251.655 218.947 251.43 219.3 251.143 219.598C250.857 219.897 250.513 220.136 250.134 220.303C249.754 220.469 249.346 220.559 248.931 220.568L239.126 220.772C239.095 220.822 239.064 220.87 239.034 220.919C238.038 222.423 236.717 223.685 235.168 224.611C233.618 225.537 231.88 226.104 230.082 226.27L195.86 231.029L195.857 231.006C195.514 231.035 195.174 231.05 194.836 231.05ZM192.972 207.535L192.843 207.564C189.885 208.087 187.246 209.735 185.48 212.16C183.714 214.585 182.959 217.599 183.373 220.569C183.788 223.538 185.34 226.232 187.703 228.083C190.066 229.934 193.056 230.799 196.045 230.495L196.283 230.471V230.473L230.025 225.781C231.752 225.623 233.421 225.079 234.909 224.191C236.397 223.302 237.666 222.091 238.622 220.648C238.656 220.595 238.689 220.541 238.722 220.488L238.848 220.286L248.921 220.076C249.62 220.057 250.284 219.766 250.769 219.263C251.255 218.761 251.523 218.088 251.516 217.391C251.508 216.693 251.226 216.026 250.731 215.534C250.235 215.042 249.565 214.764 248.866 214.76H248.809L240.538 214.933L240.546 214.672C240.555 214.439 240.554 214.186 240.546 213.901L240.541 213.709L249.13 211.265C249.471 211.174 249.791 211.016 250.071 210.8C250.35 210.584 250.583 210.315 250.758 210.008C250.932 209.701 251.043 209.363 251.085 209.013C251.127 208.663 251.098 208.308 251.002 207.969C250.905 207.63 250.741 207.313 250.521 207.038C250.3 206.763 250.027 206.534 249.717 206.365C249.406 206.196 249.066 206.09 248.714 206.054C248.363 206.018 248.008 206.052 247.67 206.154L239.082 208.597L238.986 208.431C238.843 208.185 238.688 207.939 238.523 207.7L238.374 207.483L245.524 203.258C245.824 203.08 246.087 202.845 246.297 202.566C246.507 202.286 246.66 201.969 246.746 201.63C246.833 201.292 246.852 200.94 246.803 200.595C246.753 200.249 246.636 199.917 246.458 199.617C246.28 199.316 246.044 199.054 245.764 198.844C245.484 198.635 245.166 198.483 244.827 198.396C244.488 198.31 244.135 198.291 243.789 198.34C243.443 198.389 243.11 198.506 242.809 198.684L234.07 203.848L233.95 203.791C231.898 202.809 229.6 202.454 227.346 202.771L227.105 202.805L227.102 202.789L192.972 207.535Z" fill="#4D4D4F"/>
<path d="M306.429 207.321L306.431 207.31L271.919 202.511L271.917 202.527C269.615 202.205 267.269 202.568 265.173 203.57L256.545 198.472C256.217 198.278 255.853 198.15 255.474 198.096C255.096 198.042 254.711 198.063 254.341 198.157C253.97 198.252 253.622 198.419 253.317 198.648C253.011 198.876 252.753 199.163 252.559 199.491C252.364 199.82 252.236 200.183 252.182 200.56C252.128 200.938 252.149 201.322 252.244 201.692C252.339 202.061 252.505 202.409 252.735 202.714C252.964 203.019 253.251 203.276 253.58 203.47L260.503 207.56C260.335 207.804 260.178 208.053 260.03 208.308L251.627 205.917C251.26 205.812 250.875 205.781 250.496 205.825C250.116 205.868 249.749 205.986 249.415 206.172C249.081 206.357 248.787 206.606 248.55 206.905C248.312 207.204 248.136 207.546 248.032 207.913C247.927 208.28 247.895 208.664 247.939 209.043C247.983 209.421 248.101 209.788 248.287 210.121C248.472 210.455 248.722 210.748 249.021 210.985C249.321 211.222 249.664 211.398 250.032 211.503L258.437 213.894C258.429 214.156 258.427 214.418 258.437 214.682L250.426 214.515C249.654 214.499 248.908 214.789 248.351 215.322C247.794 215.855 247.472 216.587 247.456 217.357C247.439 218.127 247.731 218.872 248.265 219.428C248.799 219.984 249.532 220.306 250.304 220.322L260.244 220.529C260.297 220.614 260.348 220.7 260.403 220.784C261.379 222.256 262.674 223.491 264.192 224.398C265.709 225.305 267.411 225.861 269.172 226.026L303.159 230.751L303.161 230.74C306.214 231.052 309.27 230.17 311.685 228.28C314.1 226.39 315.686 223.638 316.11 220.604C316.533 217.57 315.761 214.491 313.956 212.014C312.151 209.536 309.454 207.854 306.432 207.321H306.429Z" fill="white"/>
<path d="M304.394 231.049C304.056 231.049 303.716 231.035 303.373 231.007V231.018L303.126 230.995L269.139 226.269C267.342 226.102 265.606 225.535 264.059 224.609C262.512 223.683 261.193 222.422 260.199 220.92C260.166 220.871 260.137 220.822 260.106 220.773L250.301 220.568C249.886 220.559 249.478 220.469 249.098 220.303C248.718 220.137 248.375 219.897 248.088 219.599C247.801 219.3 247.576 218.948 247.426 218.563C247.275 218.177 247.202 217.766 247.21 217.352C247.219 216.939 247.309 216.531 247.476 216.152C247.642 215.773 247.882 215.431 248.181 215.144C248.481 214.858 248.833 214.633 249.22 214.483C249.606 214.332 250.018 214.26 250.432 214.268L258.186 214.43C258.186 214.317 258.186 214.201 258.186 214.079L249.965 211.739C249.566 211.625 249.194 211.435 248.869 211.178C248.544 210.92 248.273 210.602 248.072 210.24C247.87 209.879 247.742 209.481 247.695 209.07C247.647 208.659 247.681 208.243 247.795 207.845C247.908 207.447 248.1 207.075 248.357 206.751C248.615 206.427 248.934 206.157 249.296 205.955C249.658 205.754 250.057 205.626 250.469 205.579C250.88 205.531 251.298 205.565 251.696 205.679L259.915 208.019C259.992 207.892 260.072 207.765 260.153 207.64L253.456 203.682C252.735 203.256 252.214 202.563 252.006 201.753C251.798 200.944 251.921 200.085 252.348 199.366C252.774 198.647 253.47 198.127 254.281 197.919C255.092 197.712 255.952 197.835 256.673 198.26L265.188 203.292C267.221 202.347 269.478 201.986 271.705 202.252V202.25L271.952 202.268L306.708 207.1L306.705 207.123C309.651 207.703 312.275 209.356 314.068 211.76C315.861 214.164 316.694 217.148 316.406 220.131C316.118 223.113 314.729 225.883 312.509 227.901C310.29 229.919 307.397 231.041 304.394 231.05V231.049ZM303.053 230.488L303.185 230.495C303.587 230.536 303.99 230.556 304.393 230.556C307.293 230.548 310.085 229.457 312.22 227.498C314.354 225.539 315.677 222.853 315.927 219.97C316.176 217.086 315.336 214.214 313.57 211.918C311.805 209.622 309.242 208.068 306.386 207.563L306.153 207.522V207.52L272.13 202.789L271.883 202.771C269.63 202.454 267.332 202.81 265.281 203.792L265.162 203.849L256.421 198.684C255.813 198.324 255.087 198.221 254.403 198.396C253.718 198.57 253.132 199.009 252.772 199.616C252.412 200.223 252.308 200.947 252.483 201.63C252.658 202.313 253.098 202.898 253.706 203.258L260.855 207.482L260.706 207.699C260.543 207.937 260.388 208.183 260.243 208.431L260.147 208.597L251.559 206.153C250.885 205.973 250.166 206.065 249.558 206.409C248.951 206.754 248.503 207.322 248.311 207.992C248.12 208.663 248.2 209.381 248.534 209.994C248.869 210.606 249.431 211.062 250.099 211.264L258.69 213.709L258.683 213.9C258.674 214.184 258.674 214.436 258.683 214.67L258.692 214.931L250.42 214.758C250.07 214.751 249.723 214.812 249.397 214.939C249.071 215.066 248.773 215.255 248.521 215.497C248.269 215.739 248.067 216.028 247.926 216.347C247.785 216.667 247.709 217.011 247.702 217.36C247.695 217.709 247.756 218.056 247.883 218.381C248.011 218.706 248.201 219.003 248.443 219.255C248.685 219.507 248.974 219.709 249.294 219.849C249.615 219.99 249.959 220.066 250.309 220.073L260.381 220.283L260.506 220.482C260.54 220.537 260.573 220.591 260.609 220.645C261.564 222.087 262.831 223.297 264.317 224.186C265.803 225.074 267.47 225.618 269.195 225.777L303.053 230.488Z" fill="#4D4D4F"/>
<path d="M245.962 233.083H253.452V367.579H245.962V233.083Z" fill="#4D4D4F"/>
<path d="M201.318 235.087H306.943V240.298H201.318V235.087Z" fill="#4D4D4F"/>
<path d="M321.4 235.488H183.647C182.369 235.488 181.143 234.981 180.239 234.079C179.335 233.177 178.827 231.954 178.827 230.678H326.22C326.22 231.31 326.095 231.935 325.853 232.519C325.611 233.102 325.256 233.632 324.808 234.079C324.361 234.526 323.829 234.88 323.245 235.122C322.66 235.363 322.033 235.488 321.4 235.488Z" fill="white"/>
<path d="M321.401 235.734H183.647C182.304 235.733 181.016 235.199 180.067 234.252C179.117 233.304 178.582 232.019 178.581 230.678V230.432H326.467V230.678C326.465 232.019 325.931 233.304 324.981 234.252C324.032 235.199 322.744 235.733 321.401 235.734ZM179.081 230.924C179.146 232.09 179.655 233.186 180.504 233.989C181.353 234.792 182.477 235.24 183.647 235.241H321.401C322.57 235.24 323.695 234.792 324.544 233.989C325.393 233.186 325.902 232.09 325.967 230.924H179.081Z" fill="#4D4D4F"/>
<defs>
<linearGradient id="paint0_linear_397_2789" x1="308.615" y1="129.097" x2="308.615" y2="155.924" gradientUnits="userSpaceOnUse">
<stop stop-color="#4F94FC"/>
<stop offset="1" stop-color="#035FE9"/>
</linearGradient>
<linearGradient id="paint1_linear_397_2789" x1="208.139" y1="52.7454" x2="208.139" y2="79.5725" gradientUnits="userSpaceOnUse">
<stop stop-color="#4F94FC"/>
<stop offset="1" stop-color="#035FE9"/>
</linearGradient>
<linearGradient id="paint2_linear_397_2789" x1="86.5825" y1="84.4597" x2="86.5825" y2="111.287" gradientUnits="userSpaceOnUse">
<stop stop-color="#4F94FC"/>
<stop offset="1" stop-color="#035FE9"/>
</linearGradient>
<linearGradient id="paint3_linear_397_2789" x1="86.5825" y1="139.574" x2="86.5825" y2="166.402" gradientUnits="userSpaceOnUse">
<stop stop-color="#4F94FC"/>
<stop offset="1" stop-color="#035FE9"/>
</linearGradient>
<linearGradient id="paint4_linear_397_2789" x1="86.5825" y1="194.382" x2="86.5825" y2="221.209" gradientUnits="userSpaceOnUse">
<stop stop-color="#4F94FC"/>
<stop offset="1" stop-color="#035FE9"/>
</linearGradient>
<linearGradient id="paint5_linear_397_2789" x1="379.662" y1="285.192" x2="379.662" y2="323.645" gradientUnits="userSpaceOnUse">
<stop stop-color="#4F94FC"/>
<stop offset="1" stop-color="#035FE9"/>
</linearGradient>
</defs>
</svg>
